<?xml version="1.0" standalone="no"?>
<!DOCTYPE svg PUBLIC "-//W3C//DTD SVG 20010904//EN"
 "http://www.w3.org/TR/2001/REC-SVG-20010904/DTD/svg10.dtd">
<svg version="1.0" xmlns="http://www.w3.org/2000/svg"
 width="64.000000pt" height="64.000000pt" viewBox="0 0 64.000000 64.000000"
 preserveAspectRatio="xMidYMid meet">
<metadata>
Created by potrace 1.16, written by Peter Selinger 2001-2019
</metadata>
<g transform="translate(0.000000,64.000000) scale(0.100000,-0.100000)"
fill="#000000" stroke="none">
<path d="M83 390 c-44 -18 -57 -81 -24 -121 26 -32 86 -32 112 0 51 63 -14
152 -88 121z m73 -45 c15 -23 15 -27 0 -50 -22 -33 -60 -33 -82 0 -15 23 -15
27 0 50 10 15 26 25 41 25 15 0 31 -10 41 -25z"/>
<path d="M269 371 c-16 -16 -29 -39 -29 -51 0 -28 52 -80 80 -80 28 0 80 52
80 80 0 12 -13 35 -29 51 -16 16 -39 29 -51 29 -12 0 -35 -13 -51 -29z m85
-17 c31 -30 9 -84 -34 -84 -24 0 -50 26 -50 50 0 24 26 50 50 50 10 0 26 -7
34 -16z"/>
<path d="M493 390 c-44 -18 -57 -81 -24 -121 26 -32 86 -32 112 0 51 63 -14
152 -88 121z m73 -45 c15 -23 15 -27 0 -50 -22 -33 -60 -33 -82 0 -15 23 -15
27 0 50 10 15 26 25 41 25 15 0 31 -10 41 -25z"/>
</g>
</svg>
